<?xml version="1.0" encoding="UTF-8" standalone="no"?>
<!-- Created with Inkscape (http://www.inkscape.org/) -->

<svg
   xmlns:dc="http://purl.org/dc/elements/1.1/"
   xmlns:cc="http://creativecommons.org/ns#"
   xmlns:rdf="http://www.w3.org/1999/02/22-rdf-syntax-ns#"
   xmlns:svg="http://www.w3.org/2000/svg"
   xmlns="http://www.w3.org/2000/svg"
   xmlns:sodipodi="http://sodipodi.sourceforge.net/DTD/sodipodi-0.dtd"
   xmlns:inkscape="http://www.inkscape.org/namespaces/inkscape"
   width="750"
   height="750"
   viewBox="0 0 749.99999 749.99999"
   id="svg2"
   version="1.1"
   inkscape:version="0.91 r13725"
   sodipodi:docname="hl.svg">
  <defs
     id="defs4" />
  <sodipodi:namedview
     id="base"
     pagecolor="#ffffff"
     bordercolor="#666666"
     borderopacity="1.0"
     inkscape:pageopacity="0.0"
     inkscape:pageshadow="2"
     inkscape:zoom="0.64"
     inkscape:cx="-225.14189"
     inkscape:cy="77.382829"
     inkscape:document-units="px"
     inkscape:current-layer="layer2"
     showgrid="false"
     units="px"
     showguides="false"
     inkscape:guide-bbox="true"
     inkscape:window-width="1920"
     inkscape:window-height="1017"
     inkscape:window-x="-8"
     inkscape:window-y="-8"
     inkscape:window-maximized="1"
     showborder="false">
    <sodipodi:guide
       position="0,0"
       orientation="0,500"
       id="guide3396" />
    <sodipodi:guide
       position="499.99999,0"
       orientation="-500,0"
       id="guide3398" />
    <sodipodi:guide
       position="499.99999,499.99999"
       orientation="0,-500"
       id="guide3400" />
    <sodipodi:guide
       position="0,499.99999"
       orientation="500,0"
       id="guide3402" />
    <inkscape:grid
       type="xygrid"
       id="grid3404" />
    <sodipodi:guide
       position="320.24999,108.5"
       orientation="1,0"
       id="guide3406" />
    <sodipodi:guide
       position="168.5,265.99999"
       orientation="0,1"
       id="guide3408" />
    <sodipodi:guide
       position="169.5,336.49999"
       orientation="1,0"
       id="guide3410" />
    <sodipodi:guide
       position="144.5,320.99999"
       orientation="1,0"
       id="guide3412" />
    <sodipodi:guide
       position="294.49999,278.49999"
       orientation="1,0"
       id="guide3414" />
    <sodipodi:guide
       position="234.99999,131.5"
       orientation="0,1"
       id="guide3416" />
    <sodipodi:guide
       position="279.99999,240.49999"
       orientation="0,1"
       id="guide3418" />
    <sodipodi:guide
       position="390.74999,175.5"
       orientation="1,0"
       id="guide3420" />
    <sodipodi:guide
       position="406.23284,131.5"
       orientation="1,0"
       id="guide3422" />
    <sodipodi:guide
       position="301.49999,104.6875"
       orientation="0,1"
       id="guide3432" />
    <sodipodi:guide
       position="285.24999,49.499999"
       orientation="0,1"
       id="guide3351" />
    <sodipodi:guide
       position="75.041705,228.57226"
       orientation="1,0"
       id="guide3353" />
    <sodipodi:guide
       position="60.015686,252.79067"
       orientation="1,0"
       id="guide3355" />
  </sodipodi:namedview>
  <metadata
     id="metadata7">
    <rdf:RDF>
      <cc:Work
         rdf:about="">
        <dc:format>image/svg+xml</dc:format>
        <dc:type
           rdf:resource="http://purl.org/dc/dcmitype/StillImage" />
        <dc:title></dc:title>
      </cc:Work>
    </rdf:RDF>
  </metadata>
  <g
     inkscape:label="Layer 1"
     inkscape:groupmode="layer"
     id="layer1"
     transform="translate(0,-302.36222)">
    <rect
       style="fill:#00ff00;fill-rule:evenodd;stroke:#000000;stroke-width:1.25317252px;stroke-linecap:butt;stroke-linejoin:miter;stroke-opacity:1"
       id="rect3365"
       width="564.98328"
       height="572.83051"
       x="22.754004"
       y="456.07056"
       ry="75.842049" />
  </g>
  <g
     inkscape:groupmode="layer"
     id="layer2"
     inkscape:label="Layer 2"
     transform="translate(0,250)">
    <g
       id="g3367"
       transform="translate(25.03836,-23.894803)">
      <path
         sodipodi:nodetypes="ccccccccccccccccccccccccccccc"
         inkscape:connector-curvature="0"
         id="path3370"
         d="m 144.46875,395.3125 0,55.1875 25.03125,25.75 0,-80.9375 124.93876,0 0,81.00127 25.81124,-25.81124 0,-55.20037 85.97422,0 -15.47422,-26.80214 -70.30761,0.0128 0,-108.5525 141.90411,0 14.55094,-25.20296 -156.78662,0 0,-271.068327 -25.41448,-14.673059 0,285.279136 -124.74474,0 0,-90.08925 -25.60384,14.78238 0,75.30687 -84.420461,0 15.018891,26.01348 69.65715,0 0,108.16955 -84.720235,0 15.457872,26.77382 z"
         style="fill:none;fill-rule:evenodd;stroke:#000000;stroke-width:1px;stroke-linecap:butt;stroke-linejoin:miter;stroke-opacity:1" />
      <path
         inkscape:connector-curvature="0"
         id="path3361"
         d="m 169.5,259.50001 0,108.99999 125,0 0,-108.99999 z"
         style="fill:none;fill-rule:evenodd;stroke:#000000;stroke-width:1px;stroke-linecap:butt;stroke-linejoin:miter;stroke-opacity:1" />
    </g>
    <path
       style="fill:#ffffff"
       d="m 182.26559,438.40367 -11.30546,-11.34508 -0.29551,-28.17379 -0.29552,-28.17379 -34.85768,-0.29142 -34.85767,-0.29144 -6.779574,-11.86196 -6.779571,-11.86197 41.637245,-0.55243 41.63725,-0.55243 0.28653,-54.9665 0.28653,-54.9665 -35.27526,0 -35.27525,0 -6.719525,-11.71081 c -3.695739,-6.44095 -6.719526,-11.90997 -6.719526,-12.1534 0,-0.24343 18.644421,-0.44259 41.432041,-0.44259 l 41.43204,0 0,-37.5006 0,-37.50059 10.48895,-6.17308 c 5.76892,-3.39519 11.23795,-6.46049 12.15339,-6.81178 1.46565,-0.56242 1.66445,4.65401 1.66445,43.67367 l 0,44.31238 63.52496,0 63.52495,0 0.28039,-141.926563 0.28038,-141.926569 11.32476,6.638278 11.32475,6.638279 0,135.8333 0,135.833305 77.78716,0.28362 77.78716,0.28363 -6.62875,11.32476 -6.62874,11.32476 -71.15842,0 -71.15841,0 0,55.24271 0,55.24272 35.63156,0.0128 35.63155,0.0129 6.764,11.86432 6.76401,11.86431 -42.39556,0.28918 -42.39556,0.2892 0,27.90344 0,27.90344 -12.1534,12.11571 -12.15339,12.11571 0,-40.03212 0,-40.03213 -62.96292,0 -62.96292,0 -0.28999,39.79508 -0.29,39.7951 -11.30545,-11.3451 z m 137.81128,-148.34702 0,-55.79515 -62.9767,0 -62.9767,0 0,55.79515 0,55.79514 62.9767,0 62.9767,0 0,-55.79514 z"
       id="path3371"
       inkscape:connector-curvature="0" />
  </g>
</svg>
